<svg id="Layer_1" data-name="Layer 1" xmlns="http://www.w3.org/2000/svg" width="39.56" height="39.08" viewBox="0 0 39.56 39.08"><defs><style>.cls-1{fill:#fff;}</style></defs><title>calendar</title><polygon class="cls-1" points="39.81 39.33 -0.25 39.33 -0.25 3.06 7.58 3.06 7.58 4.56 1.25 4.56 1.25 37.83 38.31 37.83 38.31 4.56 31.57 4.56 31.57 3.06 39.81 3.06 39.81 39.33"/><rect class="cls-1" x="13.34" y="3.06" width="12.84" height="1.5"/><rect class="cls-1" x="0.58" y="11.19" width="38.56" height="1.5"/><rect class="cls-1" x="9.77" width="1.5" height="7.67"/><rect class="cls-1" x="28.16" y="0.06" width="1.5" height="7.44"/><rect class="cls-1" x="23.33" y="6.62" width="1.32" height="1.5"/><rect class="cls-1" x="20.68" y="6.62" width="1.32" height="1.5"/><rect class="cls-1" x="18.03" y="6.62" width="1.32" height="1.5"/><rect class="cls-1" x="15.38" y="6.62" width="1.32" height="1.5"/><rect class="cls-1" x="5.12" y="16.22" width="1.84" height="1.5"/><rect class="cls-1" x="9.71" y="16.22" width="1.84" height="1.5"/><rect class="cls-1" x="14.31" y="16.22" width="1.84" height="1.5"/><rect class="cls-1" x="18.9" y="16.22" width="1.84" height="1.5"/><rect class="cls-1" x="23.5" y="16.22" width="1.84" height="1.5"/><rect class="cls-1" x="28.09" y="16.22" width="1.84" height="1.5"/><rect class="cls-1" x="32.69" y="16.22" width="1.84" height="1.5"/><rect class="cls-1" x="5.12" y="21.66" width="1.84" height="1.5"/><rect class="cls-1" x="9.71" y="21.66" width="1.84" height="1.5"/><rect class="cls-1" x="14.31" y="21.66" width="1.84" height="1.5"/><rect class="cls-1" x="18.9" y="21.66" width="1.84" height="1.5"/><rect class="cls-1" x="23.5" y="21.66" width="1.84" height="1.5"/><rect class="cls-1" x="28.09" y="21.66" width="1.84" height="1.5"/><rect class="cls-1" x="32.69" y="21.66" width="1.84" height="1.5"/><rect class="cls-1" x="5.12" y="27.11" width="1.84" height="1.5"/><rect class="cls-1" x="9.71" y="27.11" width="1.84" height="1.5"/><rect class="cls-1" x="14.31" y="27.11" width="1.84" height="1.5"/><rect class="cls-1" x="18.9" y="27.11" width="1.84" height="1.5"/><rect class="cls-1" x="23.5" y="27.11" width="1.84" height="1.5"/><rect class="cls-1" x="28.09" y="27.11" width="1.84" height="1.5"/><rect class="cls-1" x="32.69" y="27.11" width="1.84" height="1.5"/><rect class="cls-1" x="5.12" y="32.55" width="1.84" height="1.5"/><rect class="cls-1" x="9.71" y="32.55" width="1.84" height="1.5"/><rect class="cls-1" x="14.31" y="32.55" width="1.84" height="1.5"/><rect class="cls-1" x="18.9" y="32.55" width="1.84" height="1.5"/><rect class="cls-1" x="23.5" y="32.55" width="1.84" height="1.5"/><rect class="cls-1" x="28.09" y="32.55" width="1.84" height="1.5"/><rect class="cls-1" x="32.69" y="32.55" width="1.84" height="1.5"/></svg>