<?xml version="1.0" encoding="utf-8"?>
<!-- Svg Vector Icons : http://www.onlinewebfonts.com/icon -->
<!DOCTYPE svg PUBLIC "-//W3C//DTD SVG 1.1//EN" "http://www.w3.org/Graphics/SVG/1.1/DTD/svg11.dtd">
<svg version="1.1" xmlns="http://www.w3.org/2000/svg" xmlns:xlink="http://www.w3.org/1999/xlink" x="0px" y="0px" viewBox="0 0 1000 1000" enable-background="new 0 0 1000 1000" xml:space="preserve">
<metadata> Svg Vector Icons : http://www.onlinewebfonts.com/icon </metadata>
<g><g transform="translate(0.000000,512.000000) scale(0.100000,-0.100000)"><path d="M4892.4,4991c-120.6-59.4-122.6-72.8-122.6-754.5c0-511.3,5.7-624.3,28.7-670.3c53.6-105.3,201.1-145.5,316-86.2c111.1,57.5,114.9,82.3,114.9,756.4c0,683.7-1.9,697.1-126.4,756.4C5026.5,5029.3,4967.1,5029.3,4892.4,4991z"/><path d="M1558.4,3612.2c-111.1-55.5-162.8-185.7-114.9-296.8c42.1-97.7,869.4-909.6,940.3-921.1c172.4-32.5,323.6,124.5,279.6,287.3c-13.4,55.5-111.1,162.8-444.3,496c-235.5,233.6-451.9,434.7-480.7,446.2C1665.6,3650.5,1631.1,3646.7,1558.4,3612.2z"/><path d="M8255.1,3621.8c-26.8-9.6-239.4-210.7-474.9-444.3c-463.4-463.4-492.2-503.7-438.6-630c34.5-78.5,86.2-126.4,158.9-145.5c130.2-34.5,149.4-21.1,578.3,404.1c226,224.1,427.1,430.9,450,461.5c47.9,68.9,51.7,193.4,5.8,264.3c-34.5,53.6-137.9,111.1-197.2,109.2C8318.3,3640.9,8282,3631.4,8255.1,3621.8z"/><path d="M4746.9,3047.3c-610.9-49.8-1149-304.5-1568.4-739.2c-417.5-434.7-630-955.6-630-1547.3c0-471.1,97.7-777.5,402.2-1254.3c285.3-450,476.8-835,607.1-1221.8c74.7-222.1,139.8-536.2,139.8-664.5v-86.2h1302.2h1302.2v111.1c1.9,404.1,294.9,1149,720,1823.1c319.8,509.4,406,754.5,423.2,1206.5c42.1,1103-710.5,2049.1-1842.2,2319.1c-134.1,30.6-555.4,78.5-641.5,70.8C4946,3064.5,4848.4,3056.9,4746.9,3047.3z M5114.5,1854.2c0-84.3,1.9-84.3,74.7-97.7c130.2-21.1,294.9-113,381.1-210.7c97.7-111.1,195.3-352.4,143.6-354.3c-21.1,0-273.8-36.4-344.7-47.9c-53.6-9.6-61.3-5.7-72.8,47.9c-13.4,63.2-88.1,162.8-145.5,193.4c-34.5,17.2-36.4,5.7-36.4-304.5V758.9l111.1-34.5c270-86.2,419.4-193.4,505.6-371.5c57.5-116.8,63.2-139.8,61.3-310.2c-1.9-139.8-11.5-206.8-44.1-291.1c-84.3-214.5-327.5-413.6-549.6-448.1l-84.3-11.5v-162.8v-160.9l-116.8,5.8l-114.9,5.7l-7.7,141.7c-9.6,147.5-24.9,174.3-97.7,174.3c-72.8,0-308.3,132.1-381.1,212.6C4308.3-394,4218.3-206.3,4203-89.5l-11.5,88.1L4331.3,12c78.5,7.7,172.4,19.1,210.6,24.9c67,9.6,70.9,7.6,93.8-63.2c32.6-95.8,118.7-222.1,180-264.3c57.4-36.4,53.6-65.1,59.4,304.5c3.8,281.5-5.7,354.3-46,367.7c-155.1,51.7-298.7,137.9-384.9,227.9C4316,745.5,4270,852.7,4256.6,1048c-21.1,352.4,158.9,605.1,497.9,699c113,30.6,120.6,36.4,114.9,86.2c-9.6,93.8,5.7,105.3,130.2,105.3h114.9V1854.2z"/><path d="M4804.3,1373.6c-118.7-65.1-170.4-260.4-101.5-390.7c28.7-57.5,141.7-145.5,160.9-124.5c11.5,11.5,13.4,543.9,1.9,543.9C4859.9,1400.4,4833,1388.9,4804.3,1373.6z"/><path d="M5114.5-24.4c0-208.7,7.7-316,19.2-316c42.1,0,130.2,57.5,180,114.9c134.1,160.9,91.9,388.7-91.9,476.8c-44.1,23-86.2,40.2-93.8,40.2C5120.3,291.6,5114.5,149.9,5114.5-24.4z"/><path d="M629.6,261c-101.5-53.6-139.8-201.1-82.3-314c57.5-111.1,80.4-114.9,766-114.9h622.4l67,63.2c84.3,74.7,105.3,170.4,59.4,266.2c-61.3,128.3-70.9,130.2-762.2,130.2C790.5,289.7,671.7,285.9,629.6,261z"/><path d="M8023.4,262.9c-28.7-15.3-65.1-59.4-84.3-97.7c-47.9-99.6-28.7-193.4,57.5-270l67-63.2H8686c685.6,0,708.6,3.8,766,114.9c59.4,114.9,19.2,262.3-86.2,316C9285.4,305,8100,305,8023.4,262.9z"/><path d="M3854.5-2785.8c-162.8-80.4-160.9-337,3.8-415.6c57.5-26.8,185.8-30.6,1141.3-30.6c1168.1,0,1137.5-1.9,1223.7,107.2c26.8,34.5,40.2,78.5,40.2,134c0,69-11.5,97.7-65.1,157.1l-65.1,70.9l-1108.8,3.8C4030.6-2753.3,3911.9-2757.1,3854.5-2785.8z"/><path d="M3814.3-3492.4c-118.7-99.6-111.1-281.5,15.3-365.8l65.1-44h1099.2c946,0,1106.9,3.8,1154.7,28.7c132.1,68.9,153.2,275.8,40.2,377.3l-59.4,53.6H5001.6H3873.6L3814.3-3492.4z"/><path d="M3883.2-4250.8c57.5-105.3,237.5-271.9,369.6-344.7c547.7-300.6,1307.9-226,1712,166.6c82.4,78.5,164.7,191.5,164.7,226c0,7.7-513.2,13.4-1141.3,13.4H3848.7L3883.2-4250.8z"/></g></g>
</svg>