<svg id="Layer_1" data-name="Layer 1" xmlns="http://www.w3.org/2000/svg" width="31.07" height="37.33" viewBox="0 0 31.07 37.33"><defs><style>.cls-1{fill:#da1c5c;}</style></defs><title>fire2</title><path class="cls-1" d="M15.59,37.33q-.7,0-1.44,0A15.34,15.34,0,0,1,.76,26.84C-1.51,20,1.37,12.51,8.67,6.27a.5.5,0,0,1,.8.54,11.26,11.26,0,0,0,.35,7.31C13.73,3.78,20.78.2,21.09.05a.5.5,0,0,1,.69.61c-3.61,10.52-.87,17.12.17,19.06.91-1.29,2.85-4.65,1.77-8.42a.5.5,0,0,1,.77-.54c.29.21,7.21,5.31,6.53,13.31C30.56,29.55,26.06,37.33,15.59,37.33ZM8.13,8.1C2,13.83-.3,20.48,1.71,26.53a14.33,14.33,0,0,0,12.5,9.76C25,37,29.58,29.31,30,24h0c.48-5.59-3.17-9.76-5.05-11.51a11.83,11.83,0,0,1-2.7,8.47.52.52,0,0,1-.4.17.5.5,0,0,1-.38-.21c-.21-.29-4.83-7-1.07-19.28a27.17,27.17,0,0,0-10.08,14,.5.5,0,0,1-.43.34.49.49,0,0,1-.48-.26A13.13,13.13,0,0,1,8.13,8.1Z"/></svg>