<svg id="Layer_1" data-name="Layer 1" xmlns="http://www.w3.org/2000/svg" width="47.64" height="50" viewBox="0 0 47.64 50"><defs><style>.cls-1{fill:#662d91;}</style></defs><title>money-conversion</title><path class="cls-1" d="M38.44,7.53A23.71,23.71,0,0,0,24.57,2.37l.07-.09L21.77,0,18.06,4.66l4.62,3.67L24.51,6A20.2,20.2,0,0,1,43.67,24l3.64-.41A23.77,23.77,0,0,0,38.44,7.53Z"/><path class="cls-1" d="M11.89,10.29,9.71,7.34a23.86,23.86,0,0,0-7,30.29l-.11,0-.54,3.63L8,42.12l.87-5.84-2.91-.43a20.21,20.21,0,0,1,6-25.56Z"/><path class="cls-1" d="M47.64,37.67l-2.18-5.54L40,34.29,41,37a20.28,20.28,0,0,1-25.11,7.63L14.47,48A23.92,23.92,0,0,0,44.2,38.93l0,.08Z"/><path class="cls-1" d="M26.72,25.3c-.44-.2-1.78-.73-4.06-1.6a2,2,0,0,1-1.51-2.32,2.19,2.19,0,0,1,2.37-1.75,2.41,2.41,0,0,1,2.75,2.53v.14l3.66.13a4.84,4.84,0,0,0,0-.49,6,6,0,0,0-4.42-5.72V14.32H21.84V16.2a5.68,5.68,0,0,0-.42,11c3,1.13,3.62,1.41,3.74,1.46a1.91,1.91,0,0,1,1.16,2.21,2.33,2.33,0,0,1-2.5,1.72c-2.88,0-3.23-1.76-3.25-2.52v-.34l-3.66.1v.34A6.11,6.11,0,0,0,22,36v1.81h3.67V36a5.85,5.85,0,0,0,4.27-4.34A5.55,5.55,0,0,0,26.72,25.3Z"/></svg>