<svg id="Layer_1" data-name="Layer 1" xmlns="http://www.w3.org/2000/svg" width="76.72" height="74" viewBox="0 0 76.72 74"><defs><style>.cls-1{fill:#27ab9a;}</style></defs><title>money2</title><path class="cls-1" d="M54.94,74a.89.89,0,0,1-.34-.07L35.06,65.75a4.62,4.62,0,0,1-2.44-6l.22-.53a4.62,4.62,0,0,1,6-2.44l6.88,2.87-9.5-23.14a4.62,4.62,0,0,1,2.51-6l.29-.12a4.62,4.62,0,0,1,6,2.51l5,12.23L63.44,42c.09,0,5.43-1,8,5.26l5.24,16.36a.89.89,0,0,1-1.69.54L69.77,47.87c-2-4.79-5.8-4.16-6-4.13L49.75,47a.88.88,0,0,1-1-.53L43.42,33.51A2.84,2.84,0,0,0,39.73,32l-.29.12a2.84,2.84,0,0,0-1.54,3.7L48.21,60.91a.89.89,0,0,1-1.16,1.16l-8.86-3.69a2.84,2.84,0,0,0-3.72,1.5l-.22.53a2.84,2.84,0,0,0,1.5,3.72l19.54,8.18A.89.89,0,0,1,54.94,74Z"/><path class="cls-1" d="M31.1,30.26c0-3.4-3.12-5-5.87-6.33L24,23.29c-2.5-1.25-4.87-2.43-4.87-4.73a4.91,4.91,0,0,1,5.1-4.69,4.92,4.92,0,0,1,5.11,4.69.89.89,0,1,0,1.78,0,6.6,6.6,0,0,0-6-6.38v-3a.89.89,0,0,0-1.78,0v3a6.6,6.6,0,0,0-6,6.38c0,3.39,3.11,4.95,5.85,6.32l1.27.64C27,26.78,29.32,28,29.32,30.26a4.91,4.91,0,0,1-5.1,4.68,4.91,4.91,0,0,1-5.11-4.68.89.89,0,0,0-1.78,0,6.6,6.6,0,0,0,6,6.37v3a.89.89,0,0,0,1.78,0v-3A6.6,6.6,0,0,0,31.1,30.26Z"/><path class="cls-1" d="M24.26,48.59a24.29,24.29,0,0,1-21-36.42.89.89,0,0,1,1.54.89A22.51,22.51,0,0,0,34.26,44.48.89.89,0,0,1,35,46.07a24.56,24.56,0,0,1-10.79,2.52Z"/><path class="cls-1" d="M47.38,29h-.15a.89.89,0,0,1-.73-1A22.53,22.53,0,0,0,35.23,4.62,22.53,22.53,0,0,0,9.69,7.17.89.89,0,0,1,8.53,5.82,24.28,24.28,0,0,1,47.64,17.62a24,24,0,0,1,.61,10.66A.89.89,0,0,1,47.38,29Z"/></svg>