<svg id="Layer_1" data-name="Layer 1" xmlns="http://www.w3.org/2000/svg" width="82.1" height="71" viewBox="0 0 82.1 71"><defs><style>.cls-1{fill:#662d91;}</style></defs><title>money-conversion2</title><path class="cls-1" d="M48.58,41.75c0-3.72-3.37-5.41-6.34-6.89l-1.37-.69c-3.1-1.55-5.13-2.73-5.13-4.92A5.1,5.1,0,0,1,41,24.39a5.1,5.1,0,0,1,5.3,4.85,1.1,1.1,0,0,0,2.21,0,7.21,7.21,0,0,0-6.41-7v-3a1.1,1.1,0,0,0-2.21,0v3a7.21,7.21,0,0,0-6.41,7c0,3.72,3.37,5.41,6.35,6.9l1.37.69c3.1,1.55,5.12,2.72,5.12,4.92a5.1,5.1,0,0,1-5.31,4.85,5.1,5.1,0,0,1-5.3-4.85,1.1,1.1,0,1,0-2.21,0,7.21,7.21,0,0,0,6.38,7v3a1.1,1.1,0,0,0,2.21,0v-3A7.21,7.21,0,0,0,48.58,41.75Z"/><path class="cls-1" d="M11.21,52.23h0a1.1,1.1,0,0,1-.93-.5L.18,36.11a1.1,1.1,0,0,1,.93-1.7H5.58A35.28,35.28,0,0,1,22.7,5.11L23.85,7A33.1,33.1,0,0,0,7.77,35.52a1.1,1.1,0,0,1-1.1,1.1H3.13l8.07,12.47,8.08-12.47H15.55a1.1,1.1,0,0,1-1.1-1.1A26.61,26.61,0,0,1,62.86,20.24L61,21.5A24.4,24.4,0,0,0,16.68,34.41h4.64a1.1,1.1,0,0,1,.93,1.7L12.13,51.72A1.1,1.1,0,0,1,11.21,52.23Z"/><path class="cls-1" d="M27.4,5.13l-.91-2A35.55,35.55,0,0,1,43.31.07l-.13,2.2A33.44,33.44,0,0,0,27.4,5.13Z"/><path class="cls-1" d="M56.91,6.22A33.05,33.05,0,0,0,47.5,2.83L47.92.66A35.18,35.18,0,0,1,58,4.28Z"/><path class="cls-1" d="M65.74,13.17a33.51,33.51,0,0,0-5.59-4.94l1.27-1.81a35.74,35.74,0,0,1,6,5.26Z"/><path class="cls-1" d="M59.4,65.88,58.25,64A33.1,33.1,0,0,0,74.33,35.48a1.1,1.1,0,0,1,1.1-1.1H79L70.89,21.91,62.81,34.38h3.74a1.1,1.1,0,0,1,1.1,1.1A26.61,26.61,0,0,1,19.24,50.76l1.81-1.27A24.4,24.4,0,0,0,65.42,36.59H60.78a1.1,1.1,0,0,1-.93-1.7L70,19.27a1.1,1.1,0,0,1,.93-.5h0a1.1,1.1,0,0,1,.93.5l10.1,15.61a1.1,1.1,0,0,1-.93,1.7H76.52A35.29,35.29,0,0,1,59.4,65.88Z"/><path class="cls-1" d="M41,71q-1.14,0-2.26-.07l.14-2.2A33.43,33.43,0,0,0,54.7,65.87l.91,2A35.15,35.15,0,0,1,41,71Z"/><path class="cls-1" d="M34.18,70.33a35.26,35.26,0,0,1-10-3.62l1.05-1.94a33.14,33.14,0,0,0,9.42,3.39Z"/><path class="cls-1" d="M20.68,64.58a35.6,35.6,0,0,1-6-5.27l1.64-1.48A33.47,33.47,0,0,0,22,62.77Z"/></svg>